<?xml version="1.0" standalone="no"?>
<!DOCTYPE svg PUBLIC "-//W3C//DTD SVG 20010904//EN"
 "http://www.w3.org/TR/2001/REC-SVG-20010904/DTD/svg10.dtd">
<svg version="1.0" xmlns="http://www.w3.org/2000/svg"
 width="272.000000pt" height="272.000000pt" viewBox="0 0 272.000000 272.000000"
 preserveAspectRatio="xMidYMid meet">
<metadata>
Created by potrace 1.11, written by Peter Selinger 2001-2013
</metadata>
<g transform="translate(0.000000,272.000000) scale(0.100000,-0.100000)"
fill="#000000" stroke="none">
<path d="M1094 2002 c-31 -21 -34 -54 -34 -440 0 -369 1 -391 19 -413 19 -24
21 -24 252 -27 128 -2 243 -1 255 2 45 12 54 32 54 120 0 115 -2 116 -161 116
-84 0 -129 4 -137 12 -9 9 -12 91 -12 308 0 356 10 330 -131 330 -52 0 -99 -4
-105 -8z"/>
<path d="M2309 1883 c-14 -10 -77 -77 -140 -150 -63 -72 -117 -132 -121 -132
-4 -1 -47 57 -95 128 -90 131 -120 161 -168 161 -94 0 -131 -105 -71 -204 7
-12 45 -82 84 -158 l71 -136 -120 -138 c-155 -177 -171 -201 -172 -262 -1 -41
6 -58 46 -120 55 -85 84 -103 122 -78 15 10 76 93 138 186 l111 168 73 -141
c117 -230 117 -231 155 -251 34 -19 37 -19 119 -2 46 10 104 27 129 39 40 20
45 26 48 59 3 33 -14 62 -173 297 l-176 261 65 93 c35 50 91 127 125 171 66
85 88 142 74 190 -8 28 -13 31 -53 34 -30 2 -53 -3 -71 -15z"/>
<path d="M453 1855 c-145 -45 -278 -199 -318 -367 -70 -299 88 -600 349 -665
131 -32 268 12 377 121 271 271 175 789 -167 906 -67 23 -177 26 -241 5z m174
-172 c86 -40 144 -177 144 -337 0 -206 -86 -356 -205 -356 -170 0 -265 339
-160 570 54 119 135 164 221 123z"/>
</g>
</svg>
