<svg xmlns="http://www.w3.org/2000/svg" class="svg_ic_mobil" viewBox="0 0 176 176">
  <defs>
    <style>
      .ic_fg { fill: #FFF; }
      .ic_bg { fill: transparent; }
    </style>
  </defs>
  <circle class="ic_bg" cx="88" cy="88" r="88"/>
  <path class="ic_fg" d="M145.225 97.368v1.62s0 9.208-12.81 9.208H115.38a3.463 3.463 0 0 1-2.58-3.39v-2.163s.8-4.276 12.622-7.776l12.438-3.793s7.365-1.295 7.365 6.294m-11.84-32.5s-14.828 5.38-45.752 5.38-45.756-5.38-45.756-5.38c-3.025 0-1.834-2.823-1.834-2.823l12.142-28.77a4.78 4.78 0 0 1 4.215-2.823s21.3-1.535 31.23-1.535 31.227 1.535 31.227 1.535a4.787 4.787 0 0 1 4.22 2.826l12.14 28.77s1.192 2.823-1.833 2.823M37.4 91.078l12.438 3.793c12.313 3.5 12.624 7.775 12.624 7.775v2.932c0 2.474-3.487 2.62-3.487 2.62H42.85c-12.81 0-12.81-9.208-12.81-9.208v-1.62c0-7.59 7.362-6.295 7.362-6.295m117.09-33.587v-1.42c0-4.336-4.21-3.6-4.21-3.6l-8.637 2.176a30.416 30.416 0 0 0-3.553.83C132.9 43.464 127.937 32.3 127.937 32.3c-1.815-4.3-4.54-6.76-9.207-6.76C117.3 25.537 97.56 24 87.963 24c-9.468 0-30 1.537-31.43 1.537-4.67 0-7.393 2.457-9.21 6.76 0 0-4.964 11.167-10.152 23.18a30.832 30.832 0 0 0-3.55-.83l-7.882-2.175s-4.21-.737-4.21 3.6v1.418s-.86 6.15 7.2 5.755h5.108c-4.446 10.45-8.275 19.84-8.275 21.18v22.344a16.18 16.18 0 0 0 2.2 7.582v15.5s0 6.145 6.05 6.145H47.2s6.054 0 6.054-6.145v-10.075l24.634 1.537H97.37l24.63-1.537v10.078c0 6.144 6.057 6.144 6.057 6.144h13.383c6.054 0 6.054-6.146 6.054-6.146v-15.5a16.2 16.2 0 0 0 2.2-7.584V84.425c0-1.337-3.832-10.73-8.278-21.18h5.11c8.54 0 7.96-5.755 7.96-5.755"/>
</svg>
