<svg xmlns="http://www.w3.org/2000/svg" class="svg_ic_elektronik" viewBox="0 0 176 176">
  <defs>
    <style>
      .ic_fg { fill: #FFF; }
      .ic_bg { fill: transparent; }
    </style>
  </defs>
  <circle class="ic_bg" cx="88" cy="88" r="88"/>
  <path class="ic_fg" d="M118.02 24H57.98A5.975 5.975 0 0 0 52 29.975v116.05A5.977 5.977 0 0 0 57.978 152h60.045a5.976 5.976 0 0 0 5.977-5.976V29.974A5.98 5.98 0 0 0 118.02 24zm-27.84 5.13a1.448 1.448 0 1 1-1.446 1.446 1.45 1.45 0 0 1 1.446-1.447zm-4.36 0a1.448 1.448 0 1 1-1.45 1.446 1.448 1.448 0 0 1 1.45-1.447zM88 140.284a5.975 5.975 0 1 1 5.978-5.98 5.976 5.976 0 0 1-5.978 5.98zM116 120H60V36h56v84z"/>
</svg>
