<svg xmlns="http://www.w3.org/2000/svg" class="svg_ic_hobi" viewBox="0 0 176 176">
  <defs>
    <style>
      .ic_fg { fill: #FFF; }
      .ic_bg { fill: transparent; }
    </style>
  </defs>
  <circle class="ic_bg" cx="88" cy="88" r="88"/>
  <path class="ic_fg" d="M24 88a64 64 0 1 0 18.745-45.255A63.58 63.58 0 0 0 24 88zm62.418-20.69L66.9 81.485l-18.5-8.143.584-19.408 18.736-13.66 18.7 5.46V67.31zm42.41 9l10.346 15.18-5.042 19.42-18.8 8.914-12.132-12.85 7.352-22.628zm-19.5 5.344L89.38 67.164V45.79l18.968-5.537 18.687 13.267.6 20.072zm4.19 40.557l-9.3 14.84H71.584l-9.608-15.33 11.615-12.3.18.545h28.177zM42 111.07L36.64 91.8l10.695-15.688 18.01 7.925 7.2 22.167-12.62 13.362zM72.473 30.2l-5.8 7.174-18.85 13.74-9.587 3.67A60.065 60.065 0 0 1 72.473 30.2zm65.282 24.57l-8.34-3.194-20.193-14.337-5.7-7.05a60.067 60.067 0 0 1 34.233 24.575zM147.852 88a59.51 59.51 0 0 1-10.723 34.143l-.44-9.3 4.97-19.156 6.072-9.335c.073 1.206.115 2.422.115 3.648zM88 147.852a59.5 59.5 0 0 1-25.5-5.714L73.442 140h28.915l11.088 2.16A59.49 59.49 0 0 1 88 147.852zM28.148 88c0-1.24.042-2.47.117-3.692l5.617 8.634 5.27 18.938-.468 9.994A59.51 59.51 0 0 1 28.148 88z"/>
</svg>
