<svg xmlns="http://www.w3.org/2000/svg" class="svg_ic_jasa" viewBox="0 0 176 176">
  <defs>
    <style>
      .ic_fg { fill: #FFF; }
      .ic_bg { fill: transparent; }
    </style>
  </defs>
  <circle class="ic_bg" cx="88" cy="88" r="88"/>
  <path class="ic_fg" d="M159.02 66.73L144.5 52.213c-1.122-1.123-2.96-2.962-4.086-4.086L126.3 34.006a2.66 2.66 0 0 0-3.674-.414 2.953 2.953 0 0 1-4.074-4.074 2.654 2.654 0 0 0-.413-3.672l-4.062-4.063a2.9 2.9 0 0 0-4.086 0L99.4 32.367a2.9 2.9 0 0 0 0 4.086l4.063 4.06a2.656 2.656 0 0 0 3.673.414 2.953 2.953 0 0 1 4.08 4.073 2.66 2.66 0 0 0 .413 3.674l5.642 5.643-18.5 18.5 8.52 8.52 18.5-18.5 2.262 2.262a2.9 2.9 0 0 0 4.07.012l-.4.4s9.78-9.778 21.188 1.63c1.232 1.236 2.238 2.24 2.77 2.775.033.028.047.045.075.072l.325.324c-.044-.044-.163-.165-.325-.325a2.364 2.364 0 1 0 3.262-3.26zM74.037 114.59l7.686-7.687-8.523-8.517-7.686 7.683-1.092-1.092a1.448 1.448 0 0 0-2.042 0l-29.267 29.275a1.448 1.448 0 0 0 0 2.042l10.34 10.342a1.448 1.448 0 0 0 2.04 0l29.274-29.273a1.448 1.448 0 0 0 0-2.042zM145.346 127.57L52.38 34.6l-2.042 2.042L37.08 49.9l-.037.037-.018.018.055-.055-.143-.142-.843-7.258 6.825-6.824 7.28.84.132.132 2.046-2.048-.848-.84-18.605-2.153-.267-.03a.713.713 0 0 0-.658.672l.02.183 2.16 18.677.82.874 93.02 92.916a4.336 4.336 0 0 0 6.127 0l11.2-11.2a4.337 4.337 0 0 0 0-6.13zM52.38 38.69l77.465 77.464-2.345 2.346-77.47-77.464zm-4.392 4.39l77.463 77.464-4.568 4.568-77.46-77.466zm-8.9 8.9l2.295-2.296 77.463 77.465-2.293 2.294zm79.562 79.45l13.24-13.24 2.166 2.167-13.24 13.243zm24.657.223l-11.2 11.2a1.453 1.453 0 0 1-2.044 0l-7.2-7.2L136.1 122.41l7.205 7.206a1.448 1.448 0 0 1-.005 2.042z"/>
</svg>
