<svg xmlns="http://www.w3.org/2000/svg" class="svg_ic_kpribadi" viewBox="0 0 176 176">
  <defs>
    <style>
      .ic_fg { fill: #FFF; }
      .ic_bg { fill: transparent; }
    </style>
  </defs>
  <circle class="ic_bg" cx="88" cy="88" r="88"/>
  <path class="ic_fg" d="M118.24 108.5s-17.065 8.76-28.107-4.284C72.423 83.29 42.81 41.3 41.583 32.426c-4.545-4.076-20.655 22.3-17.066 30.413.278.65.812 2.11 1.518 4.38 1.2 3.87 2.414 8.59 3.55 14.17 3.22 15.86 5.18 35.302 5.23 58.46l.008 4.14 8-.02-.01-57.96c0-7.36 2.354-6.94 4.386-4.4 4.16 5.2 8.26 10.834 12.18 16.864 7.2 11.074 11.63 23.3 17.93 34.822 5.36 9.8 12.77 10.682 14.49 10.682.54 0 18.92-.495 26.43-.88 14.395-.737 25.81-4.506 32.915-11.33S118.24 108.5 118.24 108.5z"/>
</svg>
