<svg xmlns="http://www.w3.org/2000/svg" class="svg_ic_industri" viewBox="0 0 176 176">
  <defs>
    <style>
      .ic_fg { fill: #FFF; }
      .ic_bg { fill: transparent; }
    </style>
  </defs>
  <circle class="ic_bg" cx="88" cy="88" r="88"/>
  <path class="ic_fg" d="M93.294 96.668s4.672 6.2 4 6.4-2.937 7.47-2.937 7.47l7.956 6.9 7.953-6.275 5.357 2.305 3.018 7.646 11.07-1.588 1.093-7.89 4.394-2.546 8.424 1.89 6.295-7.734-4.463-6.73.922-5.145 8.034-4.356L153 75.727l-8.957-1.227-2.217-4.96 2.414-7.545-9.02-7.207-6.988 5.386-5.417-1.687-3.237-6.717-10.773 1.75-1.54 8.024-4.53 2.924-7.62-2.487-7.047 6.86 4.7 6.783-1.54 6.113-7.328 3.58 2.086 11.12zm21.978-24.754c8.4-2.5 17.164 1.948 19.553 9.96s-2.51 16.536-10.907 19.04c-8.42 2.51-17.163-1.944-19.553-9.96s2.487-16.53 10.907-19.04zm-28.193 59.48l3.983-8.86-5.587-5.11 1.59-4.87 5.348-5.782-4.375-7.752-7.3.255-3.19-3.69.74-7.4-8.96-4.222-4.574 5.055-5.163.12-4.714-6.45-9.747 4.012.147 7.2-3.22 3.778L33.9 96.5l-4.153 9.527 5.892 5.81-.54 4.727-5.64 4.762 3.484 8.33 7.85.465 3.186 3.32-1.1 7.167 9.26 4.165 4.618-5.93 5.276-.672 5.32 7.48 8.743-4.036s-.09-6.91-.625-7.26 4.406-4.022 4.406-4.022zM72.443 122c-4.17 6.4-12.973 8.1-19.67 3.808s-8.742-12.976-4.578-19.37 12.973-8.1 19.668-3.808 8.745 12.978 4.58 19.37zM88.98 43.53l-5.242-6.364-6.047 2.3-3.11-3.032-2.372-6.225-7.6.4-2.586 5.612-4.048 1.02-5.37-3.35-6.648 5.186 2.12 5.36-1.887 3.944-6.728 1.128-.652 8.89 5.567 2.6 1.648 3.85-4 5.723L47.7 77.3l6.7-2.262 3.41 2.186 1.48 6.053 7.692.5 3.357-5.748 3.75-1.158 5.054 3.524 6.718-5.44-2.762-5.715L84.6 65l7.743-1.214.257-8.11s-5.31-2.542-5.78-2.27-1.4-4.847-1.4-4.847zm-12.767 7.52c3.3 5.553 1.24 12.848-4.6 16.29s-13.25 1.728-16.547-3.833-1.233-12.842 4.6-16.293S72.92 45.49 76.213 51.05z"/>
</svg>
