<svg xmlns="http://www.w3.org/2000/svg" class="svg_ic_motor" viewBox="0 0 176 176">
  <defs>
    <style>
      .ic_fg { fill: #FFF; }
      .ic_bg { fill: transparent; }
    </style>
  </defs>
  <circle class="ic_bg" cx="88" cy="88" r="88"/>
  <path class="ic_fg" d="M126.8 33.907H111a3.835 3.835 0 0 0-3.835 3.836v2.28A3.833 3.833 0 0 0 111 43.856h15.8a3.834 3.834 0 0 0 3.838-3.835v-2.28a3.837 3.837 0 0 0-3.838-3.833zM65 43.857a3.835 3.835 0 0 0 3.836-3.834v-2.28A3.837 3.837 0 0 0 65 33.907H49.2a3.837 3.837 0 0 0-3.836 3.836v2.28a3.835 3.835 0 0 0 3.836 3.834H65zm40.48 9.343a19.82 19.82 0 0 1-34.958 0 20.58 20.58 0 0 0-9.245 17.186v46.807A20.6 20.6 0 0 0 73.4 135.967V123.49c-2.67-1.827-3.86-5.042-3.86-9.977v-7.42A15.2 15.2 0 0 1 84.72 90.91h6.567a15.2 15.2 0 0 1 15.177 15.18v7.42c0 4.94-1.19 8.155-3.86 9.98v12.48a20.6 20.6 0 0 0 12.12-18.777V70.39a20.582 20.582 0 0 0-9.245-17.19zM91.284 95.048H84.72a11.047 11.047 0 0 0-11.05 11.045v7.42c0 6.1 1.64 7.737 7.74 7.737H94.6c6.1 0 7.73-1.637 7.73-7.736v-7.42a11.042 11.042 0 0 0-11.045-11.046zm-13.753 52.88A8.073 8.073 0 0 0 85.6 156h4.8a8.07 8.07 0 0 0 8.067-8.07v-23.462H77.532v23.46zM88 59.716a15.857 15.857 0 1 0-15.857-15.858A15.858 15.858 0 0 0 88 59.715zm0-25.807a9.95 9.95 0 1 1-9.95 9.95A9.95 9.95 0 0 1 88 33.91z"/>
</svg>
