<svg xmlns="http://www.w3.org/2000/svg" class="svg_ic_anakbayi" viewBox="0 0 176 176">
  <defs>
    <style>
      .ic_fg { fill: #FFF; }
      .ic_bg { fill: transparent; }
    </style>
  </defs>
  <circle class="ic_bg" cx="88" cy="88" r="88"/>
  <path class="ic_fg" d="M128.366 102.43a43.648 43.648 0 0 0-16.25-16.664 37.434 37.434 0 0 1-3.965 2.554 38.1 38.1 0 0 1 10.38 19.48c5.73 2.556 10.32 8.438 12.44 15.79a4.592 4.592 0 0 0 1.62-2.28c1.62-4.616-1.04-13.02-4.21-18.88zm-70.892 5.37a38.12 38.12 0 0 1 10.373-19.48 38.035 38.035 0 0 1-3.96-2.553 43.63 43.63 0 0 0-16.253 16.665c-3.168 5.857-5.838 14.26-4.215 18.876a4.578 4.578 0 0 0 1.61 2.28c2.11-7.354 6.71-13.24 12.44-15.788zm32.5 29.348c-.108-.47-.17-.947-.244-1.425a21.8 21.8 0 0 1 .818-10.332 30.915 30.915 0 0 1 8.434-13.17c.36-.32.728-.64 1.1-.94a19.863 19.863 0 0 1 12.336-4.84 14.85 14.85 0 0 1 1.93.13 15.322 15.322 0 0 1 2.717.68 36.464 36.464 0 0 0-10.1-18.25 42.227 42.227 0 0 1-37.92 0 36.47 36.47 0 0 0-10.1 18.26 15.524 15.524 0 0 1 2.7-.67c4.887-.63 9.958 1.21 14.274 4.73.37.3.73.62 1.1.94a30.9 30.9 0 0 1 8.44 13.17 21.856 21.856 0 0 1 .81 10.33c-.08.48-.14.96-.25 1.43a21.583 21.583 0 0 1-1.17 3.52c-.18.428-.36.85-.57 1.268.33 0 .63.03.97.03.9 0 1.83-.025 2.7-.07 1.28.06 2.52.076 3.74.05-.21-.42-.39-.85-.58-1.28a21.826 21.826 0 0 1-1.17-3.524zM50.09 54.87a15.628 15.628 0 0 0 2.23 1.39c-1.13 8.54 1.948 17.063 7.98 23.58q.6.645 1.23 1.265l.006.006a34.666 34.666 0 0 0 4.147 3.45l.017.02c.48.34.974.67 1.475.99l.06.04c.486.31.987.6 1.492.89.038.02.073.05.11.07.493.28.996.54 1.5.8l.164.09c.49.24.99.47 1.49.69.08.04.16.08.25.12.48.21.97.4 1.46.59l.34.14c.48.18.96.34 1.45.5.14.04.27.1.4.14.47.15.95.28 1.43.41.16.05.31.1.47.14.47.13.94.23 1.42.34.18.04.36.088.54.126.46.09.93.17 1.4.25.2.034.4.08.61.11.46.07.93.124 1.4.18.22.025.43.06.65.08.48.05.98.08 1.46.11.21.016.42.04.63.05q1.06.05 2.14.05h.01c.72 0 1.43-.02 2.14-.05.216-.01.427-.036.64-.05.486-.03.97-.06 1.45-.11.22-.024.43-.056.65-.08.468-.057.937-.11 1.4-.18.2-.03.39-.074.588-.11.474-.08.947-.156 1.41-.25.18-.04.35-.087.53-.13.475-.1.95-.21 1.42-.332.15-.035.29-.082.44-.123.49-.13.98-.27 1.46-.42.12-.033.23-.08.35-.12.51-.16 1.01-.33 1.5-.513.09-.03.17-.07.26-.1.52-.2 1.03-.4 1.53-.62l.19-.09c.52-.23 1.04-.464 1.54-.715.045-.02.08-.042.126-.063.523-.264 1.04-.535 1.545-.82.02-.01.037-.023.057-.03.53-.3 1.04-.607 1.55-.927l.01-.005a34.825 34.825 0 0 0 6.93-5.76c6.02-6.52 9.1-15.04 7.97-23.58a15.317 15.317 0 0 0 2.23-1.39 17.7 17.7 0 0 0 3.68-23.77 15.485 15.485 0 0 0-22.417-3.9 16.306 16.306 0 0 0-2.27 2.13 34.44 34.44 0 0 0-33.816 0 16.3 16.3 0 0 0-2.27-2.135 15.484 15.484 0 0 0-22.41 3.9 17.7 17.7 0 0 0 3.65 23.75zM88 57.54c5.645 0 10.85 2.228 13.92 5.962a10.587 10.587 0 0 1 2.48 8.832c-1.366 7.055-8.42 12.407-16.4 12.45-7.982-.043-15.035-5.4-16.4-12.452a10.594 10.594 0 0 1 2.48-8.832c3.068-3.73 8.27-5.96 13.92-5.96zm24.47-24.9a7.957 7.957 0 0 1 11.522 2 9.1 9.1 0 0 1-1.892 12.232 8.218 8.218 0 0 1-.85.558 36.243 36.243 0 0 0-9.947-13.7 8.4 8.4 0 0 1 1.17-1.085zM98.834 45.52c1.56 0 2.825 1.878 2.825 4.193S100.4 53.9 98.83 53.9s-2.827-1.875-2.827-4.19 1.265-4.19 2.827-4.19zm-21.666 0c1.56 0 2.825 1.878 2.825 4.193S78.727 53.9 77.168 53.9s-2.826-1.875-2.826-4.19 1.264-4.19 2.826-4.19zM52 34.65a7.956 7.956 0 0 1 11.52-2 8.25 8.25 0 0 1 1.164 1.088 36.254 36.254 0 0 0-9.945 13.7 7.953 7.953 0 0 1-.85-.558A9.1 9.1 0 0 1 52 34.65zm62.114 73.564a13.033 13.033 0 0 0-1.7-.11c-8.358 0-16.885 7.49-20.28 17.807a20 20 0 0 0 1.974 16.93 19.85 19.85 0 0 0 30.923 3.18 20.18 20.18 0 0 0 5.5-14.82c-.53-11.82-7.58-21.69-16.41-22.96zm-5.152 36.93a13.387 13.387 0 0 1-9.735-6.225 13.882 13.882 0 0 1-1.372-11.74c2.354-7.16 8.27-12.36 14.07-12.36a9.22 9.22 0 0 1 1.182.07c6.122.88 11.018 7.73 11.388 15.93a14.005 14.005 0 0 1-3.816 10.28 13.515 13.515 0 0 1-11.72 4.02zm-25.1-19.232c-3.39-10.32-11.92-17.812-20.277-17.812a13.15 13.15 0 0 0-1.716.11c-8.81 1.27-15.87 11.142-16.41 22.963A20.18 20.18 0 0 0 50.96 146 19.22 19.22 0 0 0 65 152a21.266 21.266 0 0 0 2.85-.2 19.305 19.305 0 0 0 14.032-8.97 20.008 20.008 0 0 0 1.97-16.918zm-18.804 19.366a13.34 13.34 0 0 1-9.742-4.16 14.007 14.007 0 0 1-3.816-10.285c.37-8.2 5.266-15.05 11.38-15.93a9.016 9.016 0 0 1 1.192-.077c5.8 0 11.714 5.2 14.07 12.354a13.88 13.88 0 0 1-1.372 11.737 13.39 13.39 0 0 1-9.734 6.222 14.41 14.41 0 0 1-1.978.13zM88 80.464c4.778 0 8.892-2.28 10.74-5.95a.675.675 0 0 0-1.206-.606c-1.52 3.026-4.86 4.948-8.81 5.163v-7.88a8.163 8.163 0 0 0 5.56-4.58c1-2.48-1.974-4.48-6.5-4.43s-7.228 2.12-5.943 4.63a9.24 9.24 0 0 0 5.44 4.33v7.94c-3.94-.21-7.28-2.14-8.81-5.16a.675.675 0 1 0-1.2.61c1.85 3.67 5.97 5.95 10.74 5.95z"/>
</svg>
