<svg xmlns="http://www.w3.org/2000/svg" class="svg_ic_rumahtangga" viewBox="0 0 176 176">
  <defs>
    <style>
      .ic_fg { fill: #FFF; }
      .ic_bg { fill: transparent; }
    </style>
  </defs>
  <circle class="ic_bg" cx="88" cy="88" r="88"/>
  <path class="ic_fg" d="M62.385 99.733h51.23c2.172-21.15 12.414-29.983 18.577-33.436-7.377-15.363-24.55-25.592-44.192-25.592-19.5 0-36.7 10.146-44.138 25.62.6.334 1.184.684 1.765 1.065C52.4 71.848 60.5 81.03 62.385 99.733zm78.58-30.55a8.464 8.464 0 0 0-1.113.08 1.346 1.346 0 0 0-.784-.038 15.608 15.608 0 0 0-2.23.773l-.38.165c-5.11 2.3-16.928 10.27-17.818 34.962H57.347c-.71-19.9-8.333-29.05-14.682-33.23a22.69 22.69 0 0 0-3.133-1.732l-.36-.163a15.12 15.12 0 0 0-2.253-.78 1.127 1.127 0 0 0-.67.054 8.847 8.847 0 0 0-1.23-.093 11.025 11.025 0 1 0 0 22.05 10.22 10.22 0 0 0 1.65-.14c1.93 3.738 3.834 10.49 3.074 22.21a8.7 8.7 0 0 0 8.394 9.27v8.68a4.043 4.043 0 0 0 8.085 0v-8.642h63.545v8.645a4.044 4.044 0 0 0 8.09 0v-8.68a8.694 8.694 0 0 0 8.39-9.27c-.76-11.725 1.15-18.47 3.078-22.204a10.155 10.155 0 0 0 1.643.14 11.027 11.027 0 1 0-.006-22.053z"/>
</svg>
