<svg xmlns="http://www.w3.org/2000/svg" class="svg_ic_scifi" viewBox="0 0 176 176">
  <defs>
    <style>
      .ic_fg { fill: #FFF; }
      .ic_bg { fill: transparent; }
    </style>
  </defs>
  <circle class="ic_bg" cx="88" cy="88" r="88"/>
  <path class="ic_fg" d="M149.806 91.04c-5.663 5.522-31.552 9.7-62.638 9.7-29.48 0-54.286-3.756-61.6-8.855a3.246 3.246 0 0 0-1.156 2.275c0 6.61 28.562 11.973 63.79 11.973s63.8-5.362 63.8-11.973c-.002-1.08-.767-2.127-2.196-3.12zm-37.074-17.725c-.76-9.386-10.492-16.925-22.77-17.73v-7.343a3.125 3.125 0 1 0-6.25 0v7.525c-11.477 1.43-20.32 8.8-20.884 17.81 4.316 1.08 13.655 1.823 24.488 1.823 11.695 0 21.644-.867 25.416-2.085zM87.792 97.15c35.23 0 63.793-5.48 63.793-12.24 0-4.912-15.068-9.147-36.822-11.1-.676 1.68-12.508 3.018-27.01 3.018-14.482 0-26.304-1.336-27.004-3.013C39.04 75.772 24 80 24 84.91c0 6.76 28.56 12.24 63.793 12.24zm55.525 4.755c-5.09 4.964-28.36 8.714-56.307 8.714-26.5 0-48.8-3.37-55.375-7.956a2.916 2.916 0 0 0-1.038 2.044c0 3.955 11.354 7.407 28.274 9.275l-8.825 21.023a3.83 3.83 0 1 0 3.093 1.7L66.07 114.66c6.74.52 14.127.812 21.876.812 7.643 0 14.935-.283 21.6-.79l12.92 22.02a3.806 3.806 0 1 0 3.1-1.7l-8.81-20.99c17.063-1.86 28.537-5.332 28.537-9.307-.004-.97-.688-1.905-1.975-2.805zm-56.48-60.067a3.125 3.125 0 0 0 3.123-3.124V36.5a3.125 3.125 0 1 0-6.25 0v2.212a3.124 3.124 0 0 0 3.126 3.126z"/>
</svg>
